<svg width="1339.638" height="549.408" xmlns="http://www.w3.org/2000/svg"><g style="display:inline;fill:#2e7d32;fill-opacity:1;stroke:none;stroke-opacity:1"><path style="fill:#2e7d32;fill-opacity:1;stroke:none;stroke-width:2;stroke-opacity:1" d="M110.331 308.087h119.998v80.069H110.331z" transform="translate(-108.297 -306.606)"/><path style="display:inline;fill:#2e7d32;fill-opacity:1;stroke:none;stroke-width:2;stroke-opacity:1" d="M450.781 307.456h86.794v79.859h-86.794z" transform="translate(-108.297 -306.606)"/><path style="fill:#2e7d32;fill-opacity:1;stroke:none;stroke-width:2;stroke-opacity:1" d="M229.909 307.666h87.424v79.649h-87.424zM317.754 307.666h93.729v79.859h-93.729zM538.626 307.876h55.06v79.228h-55.06zM594.737 307.666h95.41v79.438h-95.41zM690.988 308.087h54.85v79.438h-54.85zM746.259 307.666h95.62v79.859h-95.62zM1029.067 307.606h59.292v80.244h-94.882v-71.7ZM1088.811 308.087h41.19v79.649h-41.19zM1131.472 307.876h89.526v79.859h-89.526zM1222.049 307.876h56.952v79.859h-56.952zM1279.421 307.666h90.366v79.859h-90.366zM1370.256 307.903h34.327v57.212h-34.327zM1370.405 366.006h34.476v21.844h-34.476zM1446.786 329.301v-21.398h-42.054v57.657h36.853zM1391.06 445.211h54.983v53.645h-54.983zM1391.655 499.896h54.091v54.091h-54.091zM1391.209 554.73h54.685v26.302h-54.685zM1391.506 582.519h54.24v53.348h-54.24zM1391.655 636.907h54.24v50.822h-54.24zM1391.803 732.458h53.942v53.497h-53.942zM1391.209 827.266h27.343v26.154h-27.343z" transform="translate(-108.297 -306.606)"/><path style="fill:#2e7d32;fill-opacity:1;stroke:none;stroke-width:2;stroke-opacity:1" d="M1391.21 786.549h54.833v66.425h-27.491V827.71h-27.64zM1112.348 414.845h253.928v417.186h-253.928zM1088.075 725.033h23.958v34.465h-23.958zM1018.829 724.928h68.615v35.096h-68.615zM993.085 724.928h25.219v34.991h-25.219zM992.659 520.106h119.327v204.699H992.659zM993.295 486.298h118.527v32.889H993.295zM1075.466 442.27h21.331v43.502h-21.331zM1022.822 414.95h22.802v26.795h-22.802zM1075.308 415.055h21.593v14.291h-21.593zM1075.466 430.134h21.173v11.401h-21.173zM638.096 415.639h51.862v70.14h-51.862zM690.849 415.342h109.222v70.437H690.849zM801.112 415.342h109.222v70.437H801.112zM911.374 415.342h40.865v70.586h-40.865zM123.991 415.475h81.54v84.902h-81.54zM124.517 501.324h58.003v30.683h-58.003zM124.231 532.737h81.88v86.338h-81.88zM257.527 415.416h15.975v25.337h-15.975zM274.022 415.045h68.654v71.626h-68.654zM343.716 415.045h67.465v72.072h-67.465zM412.221 415.342h37.299v27.64h-37.299zM470.919 415.49h66.722v87.675h-66.722zM590.009 415.896h30.893v27.425h-30.893zM470.58 503.814h67.175v56.745H470.58zM470.933 561.266h66.645v61.165h-66.645zM470.756 623.138h67.175v33.057h-67.175zM470.933 657.079h66.645v67.175h-66.645zM470.933 725.315h66.998v31.997h-66.998zM538.815 758.018h150.791v81.317H538.815zM690.313 758.195h54.978v42.25h-54.978zM745.291 758.372h55.331v42.603h-55.331zM800.798 758.195h27.224v42.426h-27.224zM828.022 758.018h26.87v42.25h-26.87zM855.422 758.195h27.577v42.073h-27.577zM718.244 815.294h33.411v24.218h-33.411zM752.892 815.471h32.704v23.688h-32.704zM786.833 815.471h20.153v23.335h-20.153zM807.938 815.438h34.25v23.688h-34.25zM883.125 757.625h27.25V826.5h-13.5v-26H883.25Z" transform="translate(-108.297 -306.606)"/><path style="display:inline;fill:#2e7d32;fill-opacity:1;stroke:none;stroke-width:2;stroke-opacity:1" d="M411.903 307.666h37.408v79.859h-37.408z" transform="translate(-108.297 -306.606)"/><path style="display:inline;fill:#2e7d32;fill-opacity:1;stroke:none;stroke-width:1.5;stroke-dasharray:none;stroke-opacity:1" d="M172.031 530.524h20.813v-19.5H205.5v-34.875h-33.563Z" transform="matrix(1.33333 0 0 -1.33333 -108.297 815.635)"/><path style="fill:#2e7d32;fill-opacity:1;stroke:none;stroke-width:2;stroke-dasharray:none;stroke-opacity:1" d="M992.69 414.895h29.875v26.428h14.937v44.813h-44.9zM1046.076 415.072h28.815v70.976h-37.123V441.5h8.131z" transform="translate(-108.297 -306.606)"/></g><g style="display:inline;fill:none;stroke:#fff;stroke-opacity:1"><path style="fill:none;fill-opacity:1;stroke:#fff;stroke-width:1.5;stroke-dasharray:none;stroke-opacity:1" d="M632.119 550.714v60.315H82.394v-80.522h71.99v-64.268H92.673" transform="matrix(1.33333 0 0 -1.33333 -108.297 815.635)"/><path style="fill:none;fill-opacity:1;stroke:#fff;stroke-width:1.5;stroke-dasharray:none;stroke-opacity:1" d="M82.307 550.625H715.07v53.998h30.315l26.526 6.353h313.29v-16.272l-6.354-44.079v-20.117h5.796V201.504h-77.459v15.9M172.805 550.514v60.518M238.276 550.603v60.367M308.848 550.642v60.21M337.456 610.93v-59.657M403.812 550.17v60.84M445.974 611.088V550.72M517.914 611.087v-60.295M559.597 550.68v60.184M632.152 568.624h82.92M659.792 568.624v-17.72M687.543 568.402v-17.61" transform="matrix(1.33333 0 0 -1.33333 -108.297 815.635)"/><path style="fill:none;fill-opacity:1;stroke:#fff;stroke-width:1.5;stroke-dasharray:none;stroke-opacity:1" d="M744.94 604.512v-53.943h333.992M1027.58 611.199v-60.184M959.484 550.346v60.296M915.907 550.57v60.183M847.81 550.68v60.407M816.603 550.792v59.961M92.727 442.35h61.689v-65.085H92.678M92.783 530.452V222.841" transform="matrix(1.33333 0 0 -1.33333 -108.297 815.635)"/><path style="fill:none;fill-opacity:1;stroke:#fff;stroke-width:1.5;stroke-dasharray:none;stroke-opacity:1" d="M834.436 271.495h-89.78v259.209h280.361V217.52H714.315v-16.909H337.252v329.855H172.136V222.791H81.972V200.42h57.045V377.5M834.26 217.521v313.183M92.836 351.81h46.339M92.678 326.197h46.26M92.678 300.585h46.182M92.6 274.972h46.417" transform="matrix(1.33333 0 0 -1.33333 -108.297 815.635)"/><path style="fill:none;fill-opacity:1;stroke:#fff;stroke-width:1.5;stroke-dasharray:none;stroke-opacity:1" d="M92.6 249.438c.393-.157 46.26 0 46.26 0M172.353 274.736h-19.938v77.389h19.702M152.415 338.885h19.86M152.493 326.118h19.702M152.493 307.204h19.781M137.085 466.09v-23.406M172.304 476.231H308.83v54.277M308.609 509.22h28.308M205.516 530.397v-54.054M257.452 530.397v-54.054M193.034 530.285v-19.392M403.677 530.397V211.438M682.95 273.475v-51.698h-10.245v19.386H517.61M517.453 273.632v-61.47H403.621M559.064 273.317v-32.075M600.517 273.396v-31.917M621.085 273.238v-31.996M641.654 273.25v-31.917M662.38 273.317v-31.996" transform="matrix(1.33333 0 0 -1.33333 -108.297 815.635)"/><path style="fill:none;fill-opacity:1;stroke:#fff;stroke-width:1.5;stroke-dasharray:none;stroke-opacity:1" d="M538.495 230.367v-18.362h93.072v18.362zM564.186 230.21v-17.811M589.878 230.446v-18.284M605.56 230.13v-18.047M373.865 273.553v-51.855h29.868M403.677 298.132h-51.268M403.677 349.177h-50.934M403.565 374.7h-51.268M403.677 421.063h-50.934M403.677 464.195h-51.045M466.451 531.058l-.027-53.803h248.128M403.497 508.953h62.73M442.27 530.31v-21.278M466.385 530.31h-113.64V240.533" transform="matrix(1.33333 0 0 -1.33333 -108.297 815.635)"/><path style="fill:none;fill-opacity:1;stroke:#fff;stroke-width:1.5;stroke-dasharray:none;stroke-opacity:1" d="M352.902 273.475h361.946v256.81H478.405v-52.94M517.914 477.569v52.605M600.61 477.346v52.716M683.085 477.457v52.828M744.55 477.011h89.635M806.205 530.704v-53.747M778.229 476.957v33.178M767.038 509.899v20.805M784.533 510.056v20.727M822.913 477.036v53.589M744.775 451.778h89.447M744.42 298.063h89.762M764.166 298.076V271.44M815.823 297.854v-26.247M373.628 239.903h15.447V221.54M1078.765 530.48h-30.856M1084.555 507.928h-41.217V201.484M1084.555 466.948h-41.138M1084.476 425.968h-40.98M1084.476 405.4h-41.216M1084.791 364.498h-41.137M1084.397 325.488h-41.058M1043.18 292.704h41.454M1055.317 303.422h29.238M1084.532 251.991h-41.014" transform="matrix(1.33333 0 0 -1.33333 -108.297 815.635)"/><path style="fill:none;fill-opacity:1;stroke:#fff;stroke-width:1.5;stroke-dasharray:none;stroke-opacity:1" d="M1043.184 221.342h20.841v-19.727" transform="matrix(1.33333 0 0 -1.33333 -108.297 815.635)"/><path style="fill:none;stroke:#fff;stroke-width:1.5;stroke-opacity:1" d="M1027.358 567.398h53.942M1053.66 610.753v-60.128M1068.818 567.51v-17.052" transform="matrix(1.33333 0 0 -1.33333 -108.297 815.635)"/><path style="fill:none;fill-opacity:1;stroke:#fff;stroke-width:1.5;stroke-opacity:1" d="M806.294 519.586h16.272" transform="matrix(1.33333 0 0 -1.33333 -108.297 815.635)"/><path style="fill:none;fill-opacity:1;stroke:#fff;stroke-width:1.50099;stroke-dasharray:none;stroke-opacity:1" d="M205.57 510.86h-13.283" transform="matrix(1.33333 0 0 -1.33333 -108.297 815.635)"/><path style="fill:none;fill-opacity:1;stroke:#fff;stroke-width:1.5;stroke-dasharray:none;stroke-opacity:1" d="m766.283 510.514 19.001.004M806.168 510.489h16.672" transform="matrix(1.33333 0 0 -1.33333 -108.297 815.635)"/></g><g style="display:inline;fill:#fff;stroke:none;stroke-opacity:1;fill-opacity:1"><text xml:space="preserve" style="font-size:24.3572px;fill:#fff;fill-opacity:1;stroke:none;stroke-width:.761163;stroke-dasharray:none;stroke-opacity:1" x="146.265" y="356.78" transform="translate(-108.297 -306.606)"><tspan x="146.265" y="356.78" style="stroke-width:.761163;fill:#fff;stroke:none;stroke-opacity:1;fill-opacity:1">0.63</tspan></text><text xml:space="preserve" style="font-size:24.3572px;fill:#fff;fill-opacity:1;stroke:none;stroke-width:.761163;stroke-dasharray:none;stroke-opacity:1" x="249.106" y="356.15" transform="translate(-108.297 -306.606)"><tspan x="249.106" y="356.15" style="stroke-width:.761163;fill:#fff;stroke:none;stroke-opacity:1;fill-opacity:1">0.64</tspan></text><text xml:space="preserve" style="font-size:24.3572px;fill:#fff;fill-opacity:1;stroke:none;stroke-width:.761163;stroke-dasharray:none;stroke-opacity:1" x="340.553" y="356.255" transform="translate(-108.297 -306.606)"><tspan x="340.553" y="356.255" style="stroke-width:.761163;fill:#fff;stroke:none;stroke-opacity:1;fill-opacity:1">0.65</tspan></text><text xml:space="preserve" style="font-size:24.3572px;fill:#fff;fill-opacity:1;stroke:none;stroke-width:.761165;stroke-dasharray:none;stroke-opacity:1" x="-371.782" y="439.266" transform="rotate(-90 -207.451 -99.154)"><tspan x="-371.782" y="439.266" style="stroke-width:.761165;fill:#fff;stroke:none;stroke-opacity:1;fill-opacity:1">0.66</tspan></text><text xml:space="preserve" style="font-size:24.3572px;fill:#fff;fill-opacity:1;stroke:none;stroke-width:.761164;stroke-dasharray:none;stroke-opacity:1" x="470.053" y="356.044" transform="translate(-108.297 -306.606)"><tspan x="470.053" y="356.044" style="stroke-width:.761164;fill:#fff;stroke:none;stroke-opacity:1;fill-opacity:1">0.19</tspan></text><text xml:space="preserve" style="font-size:24.3572px;fill:#fff;fill-opacity:1;stroke:none;stroke-width:.761163;stroke-dasharray:none;stroke-opacity:1" x="541.994" y="356.149" transform="translate(-108.297 -306.606)"><tspan x="541.994" y="356.149" style="stroke-width:.761163;fill:#fff;stroke:none;stroke-opacity:1;fill-opacity:1">0.20</tspan></text><text xml:space="preserve" style="font-size:24.3572px;fill:#fff;fill-opacity:1;stroke:none;stroke-width:.761163;stroke-dasharray:none;stroke-opacity:1" x="620.326" y="356.044" transform="translate(-108.297 -306.606)"><tspan x="620.326" y="356.044" style="stroke-width:.761163;fill:#fff;stroke:none;stroke-opacity:1;fill-opacity:1">0.21</tspan></text><text xml:space="preserve" style="font-size:24.3572px;fill:#fff;fill-opacity:1;stroke:none;stroke-width:.761163;stroke-dasharray:none;stroke-opacity:1" x="694.348" y="356.465" transform="translate(-108.297 -306.606)"><tspan x="694.348" y="356.465" style="stroke-width:.761163;fill:#fff;stroke:none;stroke-opacity:1;fill-opacity:1">0.23</tspan></text><text xml:space="preserve" style="font-size:24.3572px;fill:#fff;fill-opacity:1;stroke:none;stroke-width:.761163;stroke-dasharray:none;stroke-opacity:1" x="770.004" y="356.255" transform="translate(-108.297 -306.606)"><tspan x="770.004" y="356.255" style="stroke-width:.761163;fill:#fff;stroke:none;stroke-opacity:1;fill-opacity:1">0.25</tspan></text><text xml:space="preserve" style="font-size:24.3572px;fill:#fff;fill-opacity:1;stroke:none;stroke-width:.761163;stroke-dasharray:none;stroke-opacity:1" x="1018.801" y="356.387" transform="translate(-108.297 -306.606)"><tspan x="1018.801" y="356.387" style="stroke-width:.761163;fill:#fff;stroke:none;stroke-opacity:1;fill-opacity:1">0.41</tspan></text><text xml:space="preserve" style="font-size:24.3572px;fill:#fff;fill-opacity:1;stroke:none;stroke-width:.761163;stroke-dasharray:none;stroke-opacity:1" x="-371.976" y="1118.065" transform="rotate(-90 -207.451 -99.154)"><tspan x="-371.976" y="1118.065" style="stroke-width:.761163;fill:#fff;stroke:none;stroke-opacity:1;fill-opacity:1">0.45</tspan></text><text xml:space="preserve" style="font-size:24.3572px;fill:#fff;fill-opacity:1;stroke:none;stroke-width:.761163;stroke-dasharray:none;stroke-opacity:1" x="1152.048" y="356.465" transform="translate(-108.297 -306.606)"><tspan x="1152.048" y="356.465" style="stroke-width:.761163;fill:#fff;stroke:none;stroke-opacity:1;fill-opacity:1">0.46</tspan></text><text xml:space="preserve" style="font-size:24.3572px;fill:#fff;fill-opacity:1;stroke:none;stroke-width:.761163;stroke-dasharray:none;stroke-opacity:1" x="1226.362" y="356.465" transform="translate(-108.297 -306.606)"><tspan x="1226.362" y="356.465" style="stroke-width:.761163;fill:#fff;stroke:none;stroke-opacity:1;fill-opacity:1">0.47</tspan></text><text xml:space="preserve" style="font-size:24.3572px;fill:#fff;fill-opacity:1;stroke:none;stroke-width:.761163;stroke-dasharray:none;stroke-opacity:1" x="1300.454" y="356.255" transform="translate(-108.297 -306.606)"><tspan x="1300.454" y="356.255" style="stroke-width:.761163;fill:#fff;stroke:none;stroke-opacity:1;fill-opacity:1">0.48</tspan></text><text xml:space="preserve" style="font-size:24.3572px;fill:#fff;fill-opacity:1;stroke:none;stroke-width:.761163;stroke-dasharray:none;stroke-opacity:1" x="-360.634" y="1396.079" transform="rotate(-90 -207.451 -99.154)"><tspan x="-360.634" y="1396.079" style="stroke-width:.761163;fill:#fff;stroke:none;stroke-opacity:1;fill-opacity:1">0.49</tspan></text><text xml:space="preserve" style="font-size:24.3572px;fill:#fff;fill-opacity:1;stroke:none;stroke-width:.761163;stroke-dasharray:none;stroke-opacity:1" x="-360.894" y="1434.418" transform="rotate(-90 -207.451 -99.154)"><tspan x="-360.894" y="1434.418" style="stroke-width:.761163;fill:#fff;stroke:none;stroke-opacity:1;fill-opacity:1">0.50</tspan></text><text xml:space="preserve" style="font-size:10.8254px;fill:#fff;fill-opacity:1;stroke:none;stroke-width:.338292;stroke-dasharray:none;stroke-opacity:1" x="1374.04" y="380.777" transform="translate(-108.297 -306.606)"><tspan x="1374.04" y="380.777" style="stroke-width:.338292;fill:#fff;stroke:none;stroke-opacity:1;fill-opacity:1">0.50a</tspan></text><text xml:space="preserve" style="font-size:24.3572px;fill:#fff;fill-opacity:1;stroke:none;stroke-width:.761163;stroke-dasharray:none;stroke-opacity:1" x="140.635" y="466.586" transform="translate(-108.297 -306.606)"><tspan x="140.635" y="466.586" style="stroke-width:.761163;fill:#fff;stroke:none;stroke-opacity:1;fill-opacity:1">0.62</tspan></text><text xml:space="preserve" style="font-size:18.9445px;fill:#fff;fill-opacity:1;stroke:none;stroke-width:.592015;stroke-dasharray:none;stroke-opacity:1" x="232.86" y="457.86" transform="translate(-108.297 -306.606)"><tspan x="232.86" y="457.86" style="stroke-width:.592015;fill:#fff;stroke:none;stroke-opacity:1;fill-opacity:1">0.69</tspan></text><text xml:space="preserve" style="font-size:10.8254px;fill:#fff;fill-opacity:1;stroke:none;stroke-width:.338295;stroke-dasharray:none;stroke-opacity:1" x="-438.818" y="269.363" transform="rotate(-90 -207.451 -99.154)"><tspan x="-438.818" y="269.363" style="stroke-width:.338295;fill:#fff;stroke:none;stroke-opacity:1;fill-opacity:1">0.68</tspan></text><text xml:space="preserve" style="font-size:23.2558px;fill:#fff;fill-opacity:1;stroke:none;stroke-width:.726743;stroke-dasharray:none;stroke-opacity:1" x="278.197" y="459.532" transform="translate(-108.297 -306.606)"><tspan x="278.197" y="459.532" style="stroke-width:.726743;fill:#fff;stroke:none;stroke-opacity:1;fill-opacity:1">0.67b</tspan></text><text xml:space="preserve" style="font-size:24.3572px;fill:#fff;fill-opacity:1;stroke:none;stroke-width:.761163;stroke-dasharray:none;stroke-opacity:1" x="346.843" y="459.739" transform="translate(-108.297 -306.606)"><tspan x="346.843" y="459.739" style="stroke-width:.761163;fill:#fff;stroke:none;stroke-opacity:1;fill-opacity:1">0.67a</tspan></text><text xml:space="preserve" style="font-size:13.5318px;fill:#fff;fill-opacity:1;stroke:none;stroke-width:.422864;stroke-dasharray:none;stroke-opacity:1" x="414.091" y="433.972" transform="translate(-108.297 -306.606)"><tspan x="414.091" y="433.972" style="stroke-width:.422864;fill:#fff;stroke:none;stroke-opacity:1;fill-opacity:1">0.67c</tspan></text><text xml:space="preserve" style="font-size:24.3572px;fill:#fff;fill-opacity:1;stroke:none;stroke-width:.761163;stroke-dasharray:none;stroke-opacity:1" x="480.13" y="467.987" transform="translate(-108.297 -306.606)"><tspan x="480.13" y="467.987" style="stroke-width:.761163;fill:#fff;stroke:none;stroke-opacity:1;fill-opacity:1">0.18</tspan></text><text xml:space="preserve" style="font-size:10.8254px;fill:#fff;fill-opacity:1;stroke:none;stroke-width:.338292;stroke-dasharray:none;stroke-opacity:1" x="591.853" y="433.457" transform="translate(-108.297 -306.606)"><tspan x="591.853" y="433.457" style="stroke-width:.338292;fill:#fff;stroke:none;stroke-opacity:1;fill-opacity:1">0.22a</tspan></text><text xml:space="preserve" style="font-size:24.3572px;fill:#fff;fill-opacity:1;stroke:none;stroke-width:.761163;stroke-dasharray:none;stroke-opacity:1" x="639.901" y="459.368" transform="translate(-108.297 -306.606)"><tspan x="639.901" y="459.368" style="stroke-width:.761163;fill:#fff;stroke:none;stroke-opacity:1;fill-opacity:1">0.22</tspan></text><text xml:space="preserve" style="font-size:24.3572px;fill:#fff;fill-opacity:1;stroke:none;stroke-width:.761163;stroke-dasharray:none;stroke-opacity:1" x="720.945" y="459.219" transform="translate(-108.297 -306.606)"><tspan x="720.945" y="459.219" style="stroke-width:.761163;fill:#fff;stroke:none;stroke-opacity:1;fill-opacity:1">0.24</tspan></text><text xml:space="preserve" style="font-size:24.3572px;fill:#fff;fill-opacity:1;stroke:none;stroke-width:.761163;stroke-dasharray:none;stroke-opacity:1" x="831.536" y="459.219" transform="translate(-108.297 -306.606)"><tspan x="831.536" y="459.219" style="stroke-width:.761163;fill:#fff;stroke:none;stroke-opacity:1;fill-opacity:1">0.26</tspan></text><text xml:space="preserve" style="font-size:24.3572px;fill:#fff;fill-opacity:1;stroke:none;stroke-width:.761163;stroke-dasharray:none;stroke-opacity:1" x="-474.797" y="940.466" transform="rotate(-90 -207.451 -99.154)"><tspan x="-474.797" y="940.466" style="stroke-width:.761163;fill:#fff;stroke:none;stroke-opacity:1;fill-opacity:1">0.30</tspan></text><text xml:space="preserve" style="font-size:16.2382px;fill:#fff;fill-opacity:1;stroke:none;stroke-width:.507441;stroke-dasharray:none;stroke-opacity:1" x="998.943" y="456.288" transform="translate(-108.297 -306.606)"><tspan x="998.943" y="456.288" style="stroke-width:.507441;fill:#fff;stroke:none;stroke-opacity:1;fill-opacity:1">0.40</tspan></text><text xml:space="preserve" style="font-size:10.8254px;fill:#fff;fill-opacity:1;stroke:none;stroke-width:.338293;stroke-dasharray:none;stroke-opacity:1" x="1023.528" y="432.196" transform="translate(-108.297 -306.606)"><tspan x="1023.528" y="432.196" style="stroke-width:.338293;fill:#fff;stroke:none;stroke-opacity:1;fill-opacity:1">0.43</tspan></text><text xml:space="preserve" style="font-size:16.2382px;fill:#fff;fill-opacity:1;stroke:none;stroke-width:.507441;stroke-dasharray:none;stroke-opacity:1" x="1040.245" y="456.332" transform="translate(-108.297 -306.606)"><tspan x="1040.245" y="456.332" style="stroke-width:.507441;fill:#fff;stroke:none;stroke-opacity:1;fill-opacity:1">0.42</tspan></text><text xml:space="preserve" style="font-size:8.11908px;display:inline;fill:#fff;fill-opacity:1;stroke:none;stroke-width:.253721;stroke-dasharray:none;stroke-opacity:1" x="1077.933" y="425.087" transform="translate(-108.297 -306.606)"><tspan x="1077.933" y="425.087" style="stroke-width:.253721;fill:#fff;stroke:none;stroke-opacity:1;fill-opacity:1">0.44</tspan></text><text xml:space="preserve" style="font-size:8.11908px;display:inline;fill:#fff;fill-opacity:1;stroke:none;stroke-width:.253721;stroke-dasharray:none;stroke-opacity:1" x="1075.851" y="438.721" transform="translate(-108.297 -306.606)"><tspan x="1075.851" y="438.721" style="stroke-width:.253721;fill:#fff;stroke:none;stroke-opacity:1;fill-opacity:1">0.44a</tspan></text><text xml:space="preserve" style="font-size:16.2382px;display:inline;fill:#fff;fill-opacity:1;stroke:none;stroke-width:.507441;stroke-dasharray:none;stroke-opacity:1" x="-484.157" y="1091.904" transform="rotate(-90 -207.451 -99.154)"><tspan x="-484.157" y="1091.904" style="stroke-width:.507441;fill:#fff;stroke:none;stroke-opacity:1;fill-opacity:1">0.37c</tspan></text><text xml:space="preserve" style="font-size:24.3572px;display:inline;fill:#fff;fill-opacity:1;stroke:none;stroke-width:.761163;stroke-dasharray:none;stroke-opacity:1" x="1180.83" y="629.771" transform="translate(-108.297 -306.606)"><tspan x="1180.83" y="629.771" style="stroke-width:.761163;fill:#fff;stroke:none;stroke-opacity:1;fill-opacity:1">Sporthalle</tspan></text><text xml:space="preserve" style="font-size:24.3572px;display:inline;fill:#fff;fill-opacity:1;stroke:none;stroke-width:.761163;stroke-dasharray:none;stroke-opacity:1" x="1394.426" y="480.692" transform="translate(-108.297 -306.606)"><tspan x="1394.426" y="480.692" style="stroke-width:.761163;fill:#fff;stroke:none;stroke-opacity:1;fill-opacity:1">0.62</tspan></text><text xml:space="preserve" style="font-size:24.3572px;display:inline;fill:#fff;fill-opacity:1;stroke:none;stroke-width:.761163;stroke-dasharray:none;stroke-opacity:1" x="131.402" y="525.324" transform="translate(-108.297 -306.606)"><tspan x="131.402" y="525.324" style="stroke-width:.761163;fill:#fff;stroke:none;stroke-opacity:1;fill-opacity:1">0.61</tspan></text><text xml:space="preserve" style="font-size:23.2558px;display:inline;fill:#fff;fill-opacity:1;stroke:none;stroke-width:.726745;stroke-dasharray:none;stroke-opacity:1" x="472.642" y="540.434" transform="translate(-108.297 -306.606)"><tspan x="472.642" y="540.434" style="stroke-width:.726745;fill:#fff;stroke:none;stroke-opacity:1;fill-opacity:1">0.17b</tspan></text><text xml:space="preserve" style="font-size:23.2558px;display:inline;fill:#fff;fill-opacity:1;stroke:none;stroke-width:.726745;stroke-dasharray:none;stroke-opacity:1" x="1021.034" y="510.99" transform="translate(-108.297 -306.606)"><tspan x="1021.034" y="510.99" style="stroke-width:.726745;fill:#fff;stroke:none;stroke-opacity:1;fill-opacity:1">0.37b</tspan></text><text xml:space="preserve" style="font-size:18.9445px;display:inline;fill:#fff;fill-opacity:1;stroke:none;stroke-width:.592015;stroke-dasharray:none;stroke-opacity:1" x="1394.897" y="533.676" transform="translate(-108.297 -306.606)"><tspan x="1394.897" y="533.676" style="stroke-width:.592015;fill:#fff;stroke:none;stroke-opacity:1;fill-opacity:1">0.61a</tspan></text><text xml:space="preserve" style="font-size:24.3572px;display:inline;fill:#fff;fill-opacity:1;stroke:none;stroke-width:.761163;stroke-dasharray:none;stroke-opacity:1" x="1394.389" y="576.54" transform="translate(-108.297 -306.606)"><tspan x="1394.389" y="576.54" style="stroke-width:.761163;fill:#fff;stroke:none;stroke-opacity:1;fill-opacity:1">0.60</tspan></text><text xml:space="preserve" style="font-size:24.3572px;display:inline;fill:#fff;fill-opacity:1;stroke:none;stroke-width:.761163;stroke-dasharray:none;stroke-opacity:1" x="1394.561" y="617.852" transform="translate(-108.297 -306.606)"><tspan x="1394.561" y="617.852" style="stroke-width:.761163;fill:#fff;stroke:none;stroke-opacity:1;fill-opacity:1">0.63</tspan></text><text xml:space="preserve" style="font-size:24.3572px;display:inline;fill:#fff;fill-opacity:1;stroke:none;stroke-width:.761163;stroke-dasharray:none;stroke-opacity:1" x="1394.259" y="670.977" transform="translate(-108.297 -306.606)"><tspan x="1394.259" y="670.977" style="stroke-width:.761163;fill:#fff;stroke:none;stroke-opacity:1;fill-opacity:1">0.64</tspan></text><text xml:space="preserve" style="font-size:24.3572px;display:inline;fill:#fff;fill-opacity:1;stroke:none;stroke-width:.761163;stroke-dasharray:none;stroke-opacity:1" x="1394.71" y="767.865" transform="translate(-108.297 -306.606)"><tspan x="1394.71" y="767.865" style="stroke-width:.761163;fill:#fff;stroke:none;stroke-opacity:1;fill-opacity:1">0.65</tspan></text><text xml:space="preserve" style="font-size:24.3572px;display:inline;fill:#fff;fill-opacity:1;stroke:none;stroke-width:.761163;stroke-dasharray:none;stroke-opacity:1" x="1394.114" y="819.758" transform="translate(-108.297 -306.606)"><tspan x="1394.114" y="819.758" style="stroke-width:.761163;fill:#fff;stroke:none;stroke-opacity:1;fill-opacity:1">0.66</tspan></text><text xml:space="preserve" style="font-size:10.8254px;display:inline;fill:#fff;fill-opacity:1;stroke:none;stroke-width:.338297;stroke-dasharray:none;stroke-opacity:1" x="1394.142" y="844.191" transform="translate(-108.297 -306.606)"><tspan x="1394.142" y="844.191" style="stroke-width:.338297;fill:#fff;stroke:none;stroke-opacity:1;fill-opacity:1">0.67</tspan></text><text xml:space="preserve" style="font-size:24.3572px;display:inline;fill:#fff;fill-opacity:1;stroke:none;stroke-width:.761163;stroke-dasharray:none;stroke-opacity:1" x="141.008" y="584.565" transform="translate(-108.297 -306.606)"><tspan x="141.008" y="584.565" style="stroke-width:.761163;fill:#fff;stroke:none;stroke-opacity:1;fill-opacity:1">0.60</tspan></text><text xml:space="preserve" style="font-size:24.3572px;display:inline;fill:#fff;fill-opacity:1;stroke:none;stroke-width:.761163;stroke-dasharray:none;stroke-opacity:1" x="473.651" y="600.507" transform="translate(-108.297 -306.606)"><tspan x="473.651" y="600.507" style="stroke-width:.761163;fill:#fff;stroke:none;stroke-opacity:1;fill-opacity:1">0.17a</tspan></text><text xml:space="preserve" style="font-size:24.3572px;display:inline;fill:#fff;fill-opacity:1;stroke:none;stroke-width:.761163;stroke-dasharray:none;stroke-opacity:1" x="480.157" y="648.326" transform="translate(-108.297 -306.606)"><tspan x="480.157" y="648.326" style="stroke-width:.761163;fill:#fff;stroke:none;stroke-opacity:1;fill-opacity:1">0.16</tspan></text><text xml:space="preserve" style="font-size:24.3572px;display:inline;fill:#fff;fill-opacity:1;stroke:none;stroke-width:.761163;stroke-dasharray:none;stroke-opacity:1" x="480.191" y="699.326" transform="translate(-108.297 -306.606)"><tspan x="480.191" y="699.326" style="stroke-width:.761163;fill:#fff;stroke:none;stroke-opacity:1;fill-opacity:1">0.15</tspan></text><text xml:space="preserve" style="font-size:24.3572px;display:inline;fill:#fff;fill-opacity:1;stroke:none;stroke-width:.761163;stroke-dasharray:none;stroke-opacity:1" x="479.917" y="749.972" transform="translate(-108.297 -306.606)"><tspan x="479.917" y="749.972" style="stroke-width:.761163;fill:#fff;stroke:none;stroke-opacity:1;fill-opacity:1">0.14</tspan></text><text xml:space="preserve" style="font-size:24.3572px;display:inline;fill:#fff;fill-opacity:1;stroke:none;stroke-width:.761163;stroke-dasharray:none;stroke-opacity:1" x="590.048" y="807.336" transform="translate(-108.297 -306.606)"><tspan x="590.048" y="807.336" style="stroke-width:.761163;fill:#fff;stroke:none;stroke-opacity:1;fill-opacity:1">0.10</tspan></text><text xml:space="preserve" style="font-size:24.3572px;display:inline;fill:#fff;fill-opacity:1;stroke:none;stroke-width:.761163;stroke-dasharray:none;stroke-opacity:1" x="693.676" y="787.979" transform="translate(-108.297 -306.606)"><tspan x="693.676" y="787.979" style="stroke-width:.761163;fill:#fff;stroke:none;stroke-opacity:1;fill-opacity:1">0.09</tspan></text><text xml:space="preserve" style="font-size:24.3572px;display:inline;fill:#fff;fill-opacity:1;stroke:none;stroke-width:.761163;stroke-dasharray:none;stroke-opacity:1" x="748.794" y="788.333" transform="translate(-108.297 -306.606)"><tspan x="748.794" y="788.333" style="stroke-width:.761163;fill:#fff;stroke:none;stroke-opacity:1;fill-opacity:1">0.07</tspan></text><text xml:space="preserve" style="font-size:18.9445px;display:inline;fill:#fff;fill-opacity:1;stroke:none;stroke-width:.592016;stroke-dasharray:none;stroke-opacity:1" x="-798.126" y="821.145" transform="rotate(-90 -207.451 -99.154)"><tspan x="-798.126" y="821.145" style="stroke-width:.592016;fill:#fff;stroke:none;stroke-opacity:1;fill-opacity:1">0.05</tspan></text><text xml:space="preserve" style="font-size:18.9445px;display:inline;fill:#fff;fill-opacity:1;stroke:none;stroke-width:.592016;stroke-dasharray:none;stroke-opacity:1" x="-797.86" y="848.192" transform="rotate(-90 -207.451 -99.154)"><tspan x="-797.86" y="848.192" style="stroke-width:.592016;fill:#fff;stroke:none;stroke-opacity:1;fill-opacity:1">0.03</tspan></text><text xml:space="preserve" style="font-size:18.9445px;display:inline;fill:#fff;fill-opacity:1;stroke:none;stroke-width:.592016;stroke-dasharray:none;stroke-opacity:1" x="-797.996" y="875.946" transform="rotate(-90 -207.451 -99.154)"><tspan x="-797.996" y="875.946" style="stroke-width:.592016;fill:#fff;stroke:none;stroke-opacity:1;fill-opacity:1">0.02</tspan></text><text xml:space="preserve" style="font-size:18.9445px;display:inline;fill:#fff;fill-opacity:1;stroke:none;stroke-width:.592016;stroke-dasharray:none;stroke-opacity:1" x="-797.048" y="903.501" transform="rotate(-90 -207.451 -99.154)"><tspan x="-797.048" y="903.501" style="stroke-width:.592016;fill:#fff;stroke:none;stroke-opacity:1;fill-opacity:1">0.01</tspan></text><text xml:space="preserve" style="font-size:13.5318px;display:inline;fill:#fff;fill-opacity:1;stroke:none;stroke-width:.422869;stroke-dasharray:none;stroke-opacity:1" x="721.532" y="832.214" transform="translate(-108.297 -306.606)"><tspan x="721.532" y="832.214" style="stroke-width:.422869;fill:#fff;stroke:none;stroke-opacity:1;fill-opacity:1">0.08</tspan></text><text xml:space="preserve" style="font-size:13.5318px;display:inline;fill:#fff;fill-opacity:1;stroke:none;stroke-width:.422869;stroke-dasharray:none;stroke-opacity:1" x="755.807" y="832.125" transform="translate(-108.297 -306.606)"><tspan x="755.807" y="832.125" style="stroke-width:.422869;fill:#fff;stroke:none;stroke-opacity:1;fill-opacity:1">0.06</tspan></text><text xml:space="preserve" style="font-size:9.47226px;display:inline;fill:#fff;fill-opacity:1;stroke:none;stroke-width:.296009;stroke-dasharray:none;stroke-opacity:1" x="787.375" y="830.506" transform="translate(-108.297 -306.606)"><tspan x="787.375" y="830.506" style="stroke-width:.296009;fill:#fff;stroke:none;stroke-opacity:1;fill-opacity:1">0.04</tspan></text><text xml:space="preserve" style="font-size:10.8254px;display:inline;fill:#fff;fill-opacity:1;stroke:none;stroke-width:.338295;stroke-dasharray:none;stroke-opacity:1" x="811.46" y="831.13" transform="translate(-108.297 -306.606)"><tspan x="811.46" y="831.13" style="stroke-width:.338295;fill:#fff;stroke:none;stroke-opacity:1;fill-opacity:1">0.04a</tspan></text><text xml:space="preserve" style="font-size:23.3766px;display:inline;fill:#fff;fill-opacity:1;stroke:none;stroke-width:.730521;stroke-dasharray:none;stroke-opacity:1" x="1029.125" y="631.268" transform="translate(-108.297 -306.606)"><tspan x="1029.125" y="631.268" style="stroke-width:.730521;fill:#fff;stroke:none;stroke-opacity:1;fill-opacity:1">Aula</tspan></text><text xml:space="preserve" style="font-size:10.8254px;display:inline;fill:#fff;fill-opacity:1;stroke:none;stroke-width:.338295;stroke-dasharray:none;stroke-opacity:1" x="994.999" y="746.272" transform="translate(-108.297 -306.606)"><tspan x="994.999" y="746.272" style="stroke-width:.338295;fill:#fff;stroke:none;stroke-opacity:1;fill-opacity:1">0.33</tspan></text><text xml:space="preserve" style="font-size:23.3766px;display:inline;fill:#fff;fill-opacity:1;stroke:none;stroke-width:.730521;stroke-dasharray:none;stroke-opacity:1" x="1029.608" y="750.786" transform="translate(-108.297 -306.606)"><tspan x="1029.608" y="750.786" style="stroke-width:.730521;fill:#fff;stroke:none;stroke-opacity:1;fill-opacity:1">0.34</tspan></text><text xml:space="preserve" style="font-size:10.8254px;display:inline;fill:#fff;fill-opacity:1;stroke:none;stroke-width:.338295;stroke-dasharray:none;stroke-opacity:1" x="1089.358" y="746.114" transform="translate(-108.297 -306.606)"><tspan x="1089.358" y="746.114" style="stroke-width:.338295;fill:#fff;stroke:none;stroke-opacity:1;fill-opacity:1">0.35</tspan></text><text xml:space="preserve" style="font-size:21.4925px;fill:#fff;stroke:none;stroke-width:1.34328;stroke-opacity:1;fill-opacity:1" x="675.8" y="630.113" transform="translate(-108.297 -306.606)"><tspan x="675.8" y="630.113" style="fill:#fff;stroke:none;stroke-width:1.34328;stroke-opacity:1;fill-opacity:1">Pausenhof EG</tspan></text><text xml:space="preserve" style="font-size:21.4925px;fill:#fff;stroke:none;stroke-width:1.34328;stroke-opacity:1;fill-opacity:1" x="1005.837" y="804.404" transform="translate(-108.297 -306.606)"><tspan x="1005.837" y="804.404" style="fill:#fff;stroke:none;stroke-width:1.34328;stroke-opacity:1;fill-opacity:1">Cafeteria</tspan></text></g></svg>