<svg width="1340.534" height="550.81" xmlns="http://www.w3.org/2000/svg"><g style="display:inline;fill:#81c784;fill-opacity:1;stroke:#558b2f;stroke-opacity:1"><path style="fill:#81c784;fill-opacity:1;stroke:#558b2f;stroke-width:2;stroke-opacity:1" d="M109.375 305.875h95.75V386h-95.75zM205.591 306h68.059v79.373h-68.059zM274.888 305.824h68.236v79.726h-68.236z" transform="translate(-107.925 -303.94)"/><path style="fill:#81c784;fill-opacity:1;stroke:#558b2f;stroke-width:2;stroke-opacity:1" d="M342.947 305.647h69.65v79.903h-69.65zM343.124 414.365h70.004v70.534h-70.004zM273.297 414.365h69.473v70.004h-69.473zM123.744 414.188h83.262v66.822h-83.262zM123.744 481.893h83.262v67.882h-83.262zM124.274 550.129h82.731v67.705h-82.731zM123.92 618.188h83.439v67.882H123.92zM123.92 686.424h83.262v68.059H123.92zM123.92 754.836h83.085v66.468H123.92zM229.813 414.438h27.437v25.625h16v44.75h-43.375z" transform="translate(-107.925 -303.94)"/><path style="fill:#81c784;fill-opacity:1;stroke:#558b2f;stroke-width:2;stroke-opacity:1" d="M257.298 414.453h15.91v25.367h-15.91zM470.25 348h70v68.125h-70zM470.5 416.5h70.291v67.554H470.5zM470.875 484.75h69.25v68h-69.25zM470.75 552.875h69.5v67.875h-69.5zM470.75 621.25h69.875v68.125H470.75z" transform="translate(-107.925 -303.94)"/><path style="fill:#81c784;fill-opacity:1;stroke:#558b2f;stroke-width:2;stroke-opacity:1" d="M470.625 689.25h70v67.5h-70zM498.875 773.5H526v27.25h-27.125z" transform="translate(-107.925 -303.94)"/><path style="fill:#81c784;fill-opacity:1;stroke:#558b2f;stroke-width:2;stroke-opacity:1" d="M498.599 756.958h41.63v31.29h-13.965v-14.85H498.6zM540.76 756.604h53.563v68.236H540.76zM594.625 757h68.25v67.875h-68.25zM663.5 757.125h53.875v67.75H663.5zM717.75 757.125h69.125V825H717.75zM786.875 757H842v68.125h-55.125zM842.25 757.125h68v67.625h-68zM992.75 305.125h68.125v82.625H992.75zM1061.5 305h68.125v82.5H1061.5zM1130 305.125h68.75v82.125H1130zM1199.125 305h68v82.875h-68zM1267.875 305.125h67.625v82.625h-67.625zM1336.375 305.375H1404v82.375h-67.625zM1431.875 305.438v29.375h-18v15.25h-9.813v-44.688Z" transform="translate(-107.925 -303.94)"/><path style="fill:#81c784;fill-opacity:1;stroke:#558b2f;stroke-width:2;stroke-opacity:1" d="M1432.063 335.125v28.438h-27.5V350.25h9.374v-15.125zM1367.25 443.25h79.5v67.25h-79.5zM1367.875 511.375h79.25V579h-79.25zM1367.75 580h79.5v67.5h-79.5zM1367.75 647.875h79.375v67.75h-79.375zM1367.625 716.125h79.75v67.625h-79.75zM1367.625 784.125h79.625v69.625h-79.625z" transform="translate(-107.925 -303.94)"/></g><g style="display:inline;stroke:#000;stroke-opacity:1"><path style="fill:none;stroke:#000;stroke-width:1.5;stroke-opacity:1" d="M631.567 550.366v62.282H81.694v-81.41h11.18v-305.71" transform="matrix(1.33333 0 0 -1.33333 -107.925 818.3)"/><path style="fill:none;stroke:#000;stroke-width:1.5;stroke-opacity:1" d="M92.719 531.18h62.719V225.649" transform="matrix(1.33333 0 0 -1.33333 -107.925 818.3)"/><path style="fill:none;stroke:#000;stroke-width:1.5;stroke-opacity:1" d="M156.186 225.66H82.4v-24.155h89.891v329.581h137.564" transform="matrix(1.33333 0 0 -1.33333 -107.925 818.3)"/><path style="fill:none;stroke:#000;stroke-width:1.5;stroke-opacity:1" d="M309.938 612.649V477.965H172.289M92.94 275.884h62.513M155.453 326.928H92.741M92.874 378.238h62.446M155.453 429.348H92.808M92.874 480.79h62.579M309.938 552.368H81.703M153.928 552.385v60.06M205.768 612.644v-60.392M257.343 552.385v60.126M257.343 531.006v-53.17M205.031 531.086v-53.11M193.106 531.04v-19.093M713.924 274.061H353M405.441 222.387v358.37l-68.434.094-.11-379.484h748.697v411.608H712.896v-83.792h293.14V201.306M405.281 529.586h-52.406M405.375 478.399h-52.219M405.375 427.024h-52.5M405.094 376.024h-51.938M405.375 324.649h-52.312M445.875 273.962v-51.575M497.317 273.962V222.52M538.152 274.36v-51.973M590.125 274.227v-52.105M631.623 274.094v-51.84M682.933 274.227v-51.973M352.769 580.824V222.32" transform="matrix(1.33333 0 0 -1.33333 -107.925 818.3)"/><path style="fill:none;stroke:#000;stroke-width:1.5;stroke-opacity:1" d="M373.883 273.962v-51.31h20.881v39.178h-20.881M373.816 240.949h20.816M394.698 250.495h10.74M404.695 222.625h278.967M466.172 528.086v-49.078h247.984V201.321M1025.625 201.368v308.061l59.836-.187M744.656 612.79v-62.297h329.625v62.625M1053.188 612.836v-62.062M1053 569.055h21" transform="matrix(1.33333 0 0 -1.33333 -107.925 818.3)"/><path style="fill:none;stroke:#000;stroke-width:1.5;stroke-opacity:1" d="M1074.188 590.524h-13.594v-11.438h-7.5M1001.906 612.93v-62.344M950.531 612.93v-62.437M899.156 613.024v-62.438M847.467 612.975V550.53M795.893 612.843V550.66M746.813 454.868h86.625v-157.5h-86.625zM1024.682 529.05h60.837M1085.586 458.517h-60.193M1085.52 407.075h-59.994M1085.254 356.097h-59.728M1085.52 304.853h-59.928M1085.453 253.81h-59.927" transform="matrix(1.33333 0 0 -1.33333 -107.925 818.3)"/><path style="fill:none;fill-opacity:1;stroke:#000;stroke-width:1.5;stroke-opacity:1" d="M204.906 511.616h-12.548" transform="matrix(1.33333 0 0 -1.33333 -107.925 818.3)"/><text xml:space="preserve" style="display:inline;fill:#000;fill-opacity:1;stroke:none;stroke-opacity:1;font-size:23.2258px;stroke-width:1.45161" x="670.524" y="628.208" transform="translate(-107.925 -303.94)"><tspan x="670.524" y="628.208" style="stroke-width:1.45161">Pausenhof EG</tspan></text><text xml:space="preserve" style="font-size:17.4193px;display:inline;fill:#000;fill-opacity:1;stroke:none;stroke-width:1.08871;stroke-opacity:1" x="860.453" y="-413.511" transform="matrix(1.33333 0 0 1.33333 -107.925 818.3)"><tspan x="860.453" y="-413.511" style="stroke-width:1.08871">Pausenhof OG</tspan></text></g><text xml:space="preserve" style="font-size:24.3902px;fill:#000;stroke-width:1.52439" x="132.543" y="354.596" transform="translate(-107.925 -303.94)"><tspan x="132.543" y="354.596" style="stroke-width:1.52439">1.66</tspan></text><text xml:space="preserve" style="font-size:24.3902px;fill:#000;stroke-width:1.52439" x="214.938" y="354.345" transform="translate(-107.925 -303.94)"><tspan x="214.938" y="354.345" style="stroke-width:1.52439">1.67</tspan></text><text xml:space="preserve" style="font-size:24.3902px;fill:#000;stroke-width:1.52439" x="284.335" y="354.345" transform="translate(-107.925 -303.94)"><tspan x="284.335" y="354.345" style="stroke-width:1.52439">1.68</tspan></text><text xml:space="preserve" style="font-size:24.3902px;fill:#000;stroke-width:1.52439" x="353.125" y="354.257" transform="translate(-107.925 -303.94)"><tspan x="353.125" y="354.257" style="stroke-width:1.52439">1.69</tspan></text><text xml:space="preserve" style="font-size:24.3902px;fill:#000;stroke-width:1.52439" x="1002.105" y="355.096" transform="translate(-107.925 -303.94)"><tspan x="1002.105" y="355.096" style="stroke-width:1.52439">1.16</tspan></text><text xml:space="preserve" style="font-size:24.3902px;fill:#000;stroke-width:1.52439" x="1070.88" y="354.787" transform="translate(-107.925 -303.94)"><tspan x="1070.88" y="354.787" style="stroke-width:1.52439">1.17</tspan></text><text xml:space="preserve" style="font-size:24.3902px;fill:#000;stroke-width:1.52439" x="1139.704" y="354.846" transform="translate(-107.925 -303.94)"><tspan x="1139.704" y="354.846" style="stroke-width:1.52439">1.18</tspan></text><text xml:space="preserve" style="font-size:24.3902px;fill:#000;stroke-width:1.52439" x="1208.479" y="355.096" transform="translate(-107.925 -303.94)"><tspan x="1208.479" y="355.096" style="stroke-width:1.52439">1.19</tspan></text><text xml:space="preserve" style="font-size:24.3902px;fill:#000;stroke-width:1.52439" x="1277.005" y="355.108" transform="translate(-107.925 -303.94)"><tspan x="1277.005" y="355.108" style="stroke-width:1.52439">1.20</tspan></text><text xml:space="preserve" style="font-size:24.3902px;fill:#000;stroke-width:1.52439" x="1347.553" y="355.221" transform="translate(-107.925 -303.94)"><tspan x="1347.553" y="355.221" style="stroke-width:1.52439">1.21</tspan></text><text xml:space="preserve" style="font-size:24.3902px;fill:#000;stroke-width:1.52439" x="1382.415" y="485.534" transform="translate(-107.925 -303.94)"><tspan x="1382.415" y="485.534" style="stroke-width:1.52439">1.25</tspan></text><text xml:space="preserve" style="font-size:24.3902px;fill:#000;stroke-width:1.52439" x="1382.793" y="553.846" transform="translate(-107.925 -303.94)"><tspan x="1382.793" y="553.846" style="stroke-width:1.52439">1.26</tspan></text><text xml:space="preserve" style="font-size:24.3902px;fill:#000;stroke-width:1.52439" x="1382.817" y="622.409" transform="translate(-107.925 -303.94)"><tspan x="1382.817" y="622.409" style="stroke-width:1.52439">1.27</tspan></text><text xml:space="preserve" style="font-size:24.3902px;fill:#000;stroke-width:1.52439" x="1382.767" y="690.409" transform="translate(-107.925 -303.94)"><tspan x="1382.767" y="690.409" style="stroke-width:1.52439">1.28</tspan></text><text xml:space="preserve" style="font-size:24.3902px;fill:#000;stroke-width:1.52439" x="1382.854" y="758.596" transform="translate(-107.925 -303.94)"><tspan x="1382.854" y="758.596" style="stroke-width:1.52439">1.29</tspan></text><text xml:space="preserve" style="font-size:24.3902px;fill:#000;stroke-width:1.52439" x="1382.755" y="827.608" transform="translate(-107.925 -303.94)"><tspan x="1382.755" y="827.608" style="stroke-width:1.52439">1.30</tspan></text><text xml:space="preserve" style="font-size:24.3902px;fill:#000;stroke-width:1.52439" x="140.789" y="456.257" transform="translate(-107.925 -303.94)"><tspan x="140.789" y="456.257" style="stroke-width:1.52439">1.65</tspan></text><text xml:space="preserve" style="font-size:24.3902px;fill:#000;stroke-width:1.52439" x="140.338" y="524.493" transform="translate(-107.925 -303.94)"><tspan x="140.338" y="524.493" style="stroke-width:1.52439">1.64</tspan></text><text xml:space="preserve" style="font-size:24.3902px;fill:#000;stroke-width:1.52439" x="141.054" y="592.64" transform="translate(-107.925 -303.94)"><tspan x="141.054" y="592.64" style="stroke-width:1.52439">1.63</tspan></text><text xml:space="preserve" style="font-size:24.3902px;fill:#000;stroke-width:1.52439" x="140.993" y="660.788" transform="translate(-107.925 -303.94)"><tspan x="140.993" y="660.788" style="stroke-width:1.52439">1.62</tspan></text><text xml:space="preserve" style="font-size:24.3902px;fill:#000;stroke-width:1.52439" x="142.917" y="729.112" transform="translate(-107.925 -303.94)"><tspan x="142.917" y="729.112" style="stroke-width:1.52439">1.61</tspan></text><text xml:space="preserve" style="font-size:24.3902px;fill:#000;stroke-width:1.52439" x="140.78" y="796.741" transform="translate(-107.925 -303.94)"><tspan x="140.78" y="796.741" style="stroke-width:1.52439">1.60</tspan></text><text xml:space="preserve" style="font-size:24.3902px;fill:#000;stroke-width:1.52439" x="285.399" y="457.903" transform="translate(-107.925 -303.94)"><tspan x="285.399" y="457.903" style="stroke-width:1.52439">1.71</tspan></text><text xml:space="preserve" style="font-size:24.3902px;fill:#000;stroke-width:1.52439" x="353.442" y="458.302" transform="translate(-107.925 -303.94)"><tspan x="353.442" y="458.302" style="stroke-width:1.52439">1.70</tspan></text><text xml:space="preserve" style="font-size:24.7253px;fill:#000;stroke-width:1.54533" x="480.327" y="390.716" transform="translate(-107.925 -303.94)"><tspan x="480.327" y="390.716" style="stroke-width:1.54533">1.15</tspan></text><text xml:space="preserve" style="font-size:24.5902px;fill:#000;stroke-width:1.53689" x="480.403" y="458.933" transform="translate(-107.925 -303.94)"><tspan x="480.403" y="458.933" style="stroke-width:1.53689">1.14</tspan></text><text xml:space="preserve" style="font-size:24.3902px;fill:#000;stroke-width:1.52439" x="480.915" y="527.409" transform="translate(-107.925 -303.94)"><tspan x="480.915" y="527.409" style="stroke-width:1.52439">1.13</tspan></text><text xml:space="preserve" style="font-size:24.3902px;fill:#000;stroke-width:1.52439" x="480.854" y="595.471" transform="translate(-107.925 -303.94)"><tspan x="480.854" y="595.471" style="stroke-width:1.52439">1.12</tspan></text><text xml:space="preserve" style="font-size:24.7253px;fill:#000;stroke-width:1.54533" x="482.742" y="663.966" transform="translate(-107.925 -303.94)"><tspan x="482.742" y="663.966" style="stroke-width:1.54533">1.11</tspan></text><text xml:space="preserve" style="font-size:24.3572px;fill:#000;stroke-width:1.52233" x="480.975" y="731.659" transform="translate(-107.925 -303.94)"><tspan x="480.975" y="731.659" style="stroke-width:1.52233">1.10</tspan></text><text xml:space="preserve" style="font-size:10.8254px;fill:#000;stroke-width:.676594" x="509.6" y="769.336" transform="translate(-107.925 -303.94)"><tspan x="509.6" y="769.336" style="stroke-width:.676594">1.09</tspan></text><text xml:space="preserve" style="font-size:10.8254px;fill:#000;stroke-width:.676594" x="501.498" y="790.973" transform="translate(-107.925 -303.94)"><tspan x="501.498" y="790.973" style="stroke-width:.676594">1.08</tspan></text><text xml:space="preserve" style="font-size:24.3572px;fill:#000;stroke-width:1.52233" x="542.868" y="799.381" transform="translate(-107.925 -303.94)"><tspan x="542.868" y="799.381" style="stroke-width:1.52233">1.06</tspan></text><text xml:space="preserve" style="font-size:24.3572px;fill:#000;stroke-width:1.52233" x="604.198" y="799.596" transform="translate(-107.925 -303.94)"><tspan x="604.198" y="799.596" style="stroke-width:1.52233">1.05</tspan></text><text xml:space="preserve" style="font-size:24.3572px;fill:#000;stroke-width:1.52233" x="665.435" y="799.659" transform="translate(-107.925 -303.94)"><tspan x="665.435" y="799.659" style="stroke-width:1.52233">1.04</tspan></text><text xml:space="preserve" style="font-size:24.3572px;fill:#000;stroke-width:1.52233" x="727.76" y="799.721" transform="translate(-107.925 -303.94)"><tspan x="727.76" y="799.721" style="stroke-width:1.52233">1.03</tspan></text><text xml:space="preserve" style="font-size:24.3572px;fill:#000;stroke-width:1.52233" x="789.825" y="799.721" transform="translate(-107.925 -303.94)"><tspan x="789.825" y="799.721" style="stroke-width:1.52233">1.02</tspan></text><text xml:space="preserve" style="font-size:24.3572px;fill:#000;stroke-width:1.52233" x="853.646" y="799.596" transform="translate(-107.925 -303.94)"><tspan x="853.646" y="799.596" style="stroke-width:1.52233">1.01</tspan></text></svg>