<?xml version="1.0" encoding="utf-8"?>
<!-- Generator: Fusion 360, Shaper Origin Export Add-In, Version 1.6.9  -->
<svg xmlns="http://www.w3.org/2000/svg" xmlns:xlink="http://www.w3.org/1999/xlink" xmlns:shaper="http://www.shapertools.com/namespaces/shaper" shaper:fusionaddin="version:1.6.9" width="14.6" height="6.06" version="1.1" x="0" y="0" viewBox="0 0 14.6 6.06" enable-background="new 0 0 14.6 6.06" xml:space="preserve"><path d="M3.332,4.848 L3.332,4.12 1.332,4.12 1.332,0.363 0.848,0.363 0.848,-0 0,0 0,0.363 0.181,0.363 0.181,4.848 0,4.848 0,6.06 8.06,6.06 8.06,5.454 9.271,5.454 9.271,5.878 10.058,6.06 14.6,6.06 14.6,5.73 14.479,4.848 14.6,4.848 14.6,0 13.449,0 13.449,0.303 9.271,0.303 9.271,0 3.756,-0 3.756,4.12 3.756,4.848 1.816,4.848" transform="matrix(1,0,0,-1,-0,6.06)" stroke="rgb(100,100,100)" stroke-width="0.0010" stroke-linecap="round" stroke-linejoin="round" fill="none" shaper:cutDepth="0" /><path d="M4.726,4.605 L4.726,1.09 9.271,1.09 9.271,4.12 5.695,4.12 5.695,4.605 4.726,4.605z" transform="matrix(1,0,0,-1,-0,6.06)" stroke="rgb(100,100,100)" stroke-width="0.0010" stroke-linecap="round" stroke-linejoin="round" fill="none" shaper:cutDepth="0" /><path d="M0.181,0.363 L0.848,0.363" transform="matrix(1,0,0,-1,-0,6.06)" stroke="rgb(100,100,100)" stroke-width="0.0010" stroke-linecap="round" stroke-linejoin="round" fill="none" shaper:cutDepth="0" /><path d="M0,6.06 L1.33,6.06 1.33,5.212 0,5.212 0,6.06z" transform="matrix(1,0,0,-1,-0,6.06)" stroke="rgb(100,100,100)" stroke-width="0.0010" stroke-linecap="round" stroke-linejoin="round" fill="none" shaper:cutDepth="0" /><path d="M1.33,5.212 L9.271,5.212 9.271,5.454" transform="matrix(1,0,0,-1,-0,6.06)" stroke="rgb(100,100,100)" stroke-width="0.0010" stroke-linecap="round" stroke-linejoin="round" fill="none" shaper:cutDepth="0" /><path d="M2.303,6.06 L2.303,5.212" transform="matrix(1,0,0,-1,-0,6.06)" stroke="rgb(100,100,100)" stroke-width="0.0010" stroke-linecap="round" stroke-linejoin="round" fill="none" shaper:cutDepth="0" /><path d="M3.33,6.06 L3.33,5.212" transform="matrix(1,0,0,-1,-0,6.06)" stroke="rgb(100,100,100)" stroke-width="0.0010" stroke-linecap="round" stroke-linejoin="round" fill="none" shaper:cutDepth="0" /><path d="M4.725,6.06 L4.725,5.212" transform="matrix(1,0,0,-1,-0,6.06)" stroke="rgb(100,100,100)" stroke-width="0.0010" stroke-linecap="round" stroke-linejoin="round" fill="none" shaper:cutDepth="0" /><path d="M3.756,6.06 L3.756,5.212" transform="matrix(1,0,0,-1,-0,6.06)" stroke="rgb(100,100,100)" stroke-width="0.0010" stroke-linecap="round" stroke-linejoin="round" fill="none" shaper:cutDepth="0" /><path d="M5.331,6.06 L5.331,5.212" transform="matrix(1,0,0,-1,-0,6.06)" stroke="rgb(100,100,100)" stroke-width="0.0010" stroke-linecap="round" stroke-linejoin="round" fill="none" shaper:cutDepth="0" /><path d="M6.416,6.06 L6.416,5.212" transform="matrix(1,0,0,-1,-0,6.06)" stroke="rgb(100,100,100)" stroke-width="0.0010" stroke-linecap="round" stroke-linejoin="round" fill="none" shaper:cutDepth="0" /><path d="M7.028,6.06 L7.028,5.212" transform="matrix(1,0,0,-1,-0,6.06)" stroke="rgb(100,100,100)" stroke-width="0.0010" stroke-linecap="round" stroke-linejoin="round" fill="none" shaper:cutDepth="0" /><path d="M8.06,5.454 L8.06,5.212" transform="matrix(1,0,0,-1,-0,6.06)" stroke="rgb(100,100,100)" stroke-width="0.0010" stroke-linecap="round" stroke-linejoin="round" fill="none" shaper:cutDepth="0" /><path d="M8.49,5.454 L8.49,5.212" transform="matrix(1,0,0,-1,-0,6.06)" stroke="rgb(100,100,100)" stroke-width="0.0010" stroke-linecap="round" stroke-linejoin="round" fill="none" shaper:cutDepth="0" /><path d="M8.841,5.454 L8.841,5.212" transform="matrix(1,0,0,-1,-0,6.06)" stroke="rgb(100,100,100)" stroke-width="0.0010" stroke-linecap="round" stroke-linejoin="round" fill="none" shaper:cutDepth="0" /><path d="M0.181,4.848 L1.09,4.848 1.09,3.879 0.181,3.879" transform="matrix(1,0,0,-1,-0,6.06)" stroke="rgb(100,100,100)" stroke-width="0.0010" stroke-linecap="round" stroke-linejoin="round" fill="none" shaper:cutDepth="0" /><path d="M0.181,3.516 L1.09,3.516 1.09,2.607 0.181,2.6055" transform="matrix(1,0,0,-1,-0,6.06)" stroke="rgb(100,100,100)" stroke-width="0.0010" stroke-linecap="round" stroke-linejoin="round" fill="none" shaper:cutDepth="0" /><path d="M0.848,3.879 L0.848,3.516" transform="matrix(1,0,0,-1,-0,6.06)" stroke="rgb(100,100,100)" stroke-width="0.0010" stroke-linecap="round" stroke-linejoin="round" fill="none" shaper:cutDepth="0" /><path d="M1.09,2.607 L1.332,2.607" transform="matrix(1,0,0,-1,-0,6.06)" stroke="rgb(100,100,100)" stroke-width="0.0010" stroke-linecap="round" stroke-linejoin="round" fill="none" shaper:cutDepth="0" /><path d="M1.332,4.12 L1.332,4.848 1.816,4.848 1.816,4.12" transform="matrix(1,0,0,-1,-0,6.06)" stroke="rgb(100,100,100)" stroke-width="0.0010" stroke-linecap="round" stroke-linejoin="round" fill="none" shaper:cutDepth="0" /><path d="M2.604,4.848 L2.604,4.12" transform="matrix(1,0,0,-1,-0,6.06)" stroke="rgb(100,100,100)" stroke-width="0.0010" stroke-linecap="round" stroke-linejoin="round" fill="none" shaper:cutDepth="0" /><path d="M5.695,4.605 L5.695,4.848 4.726,4.848 4.726,4.605" transform="matrix(1,0,0,-1,-0,6.06)" stroke="rgb(100,100,100)" stroke-width="0.0010" stroke-linecap="round" stroke-linejoin="round" fill="none" shaper:cutDepth="0" /><path d="M4.726,4.848 L3.9690029,4.8459203 3.9716649,3.876924 4.726,3.876924" transform="matrix(1,0,0,-1,-0,6.06)" stroke="rgb(100,100,100)" stroke-width="0.0010" stroke-linecap="round" stroke-linejoin="round" fill="none" shaper:cutDepth="0" /><path d="M3.9716649,3.876924 L3.9716649,2.545 4.726,2.545" transform="matrix(1,0,0,-1,-0,6.06)" stroke="rgb(100,100,100)" stroke-width="0.0010" stroke-linecap="round" stroke-linejoin="round" fill="none" shaper:cutDepth="0" /><path d="M3.9716649,2.545 L3.9716649,2.188 4.726,2.188" transform="matrix(1,0,0,-1,-0,6.06)" stroke="rgb(100,100,100)" stroke-width="0.0010" stroke-linecap="round" stroke-linejoin="round" fill="none" shaper:cutDepth="0" /><path d="M3.9716649,2.188 L3.9716649,1.455 4.726,1.455" transform="matrix(1,0,0,-1,-0,6.06)" stroke="rgb(100,100,100)" stroke-width="0.0010" stroke-linecap="round" stroke-linejoin="round" fill="none" shaper:cutDepth="0" /><path d="M3.9716649,1.455 L3.9716649,1.09 4.726,1.09 4.726,0.363 4.2746649,0.363 4.2746649,0.606" transform="matrix(1,0,0,-1,-0,6.06)" stroke="rgb(100,100,100)" stroke-width="0.0010" stroke-linecap="round" stroke-linejoin="round" fill="none" shaper:cutDepth="0" /><path d="M3.9716649,1.09 L3.9716649,0.606 4.2746649,0.606 4.2746649,1.09" transform="matrix(1,0,0,-1,-0,6.06)" stroke="rgb(100,100,100)" stroke-width="0.0010" stroke-linecap="round" stroke-linejoin="round" fill="none" shaper:cutDepth="0" /><path d="M4.726,0.363 L4.726,0.181 6.362,0.181 6.362,1.09" transform="matrix(1,0,0,-1,-0,6.06)" stroke="rgb(100,100,100)" stroke-width="0.0010" stroke-linecap="round" stroke-linejoin="round" fill="none" shaper:cutDepth="0" /><path d="M6.362,0.606 L8.605,0.606 8.605,0.363 8.786,0.363 8.786,1.09" transform="matrix(1,0,0,-1,-0,6.06)" stroke="rgb(100,100,100)" stroke-width="0.0010" stroke-linecap="round" stroke-linejoin="round" fill="none" shaper:cutDepth="0" /><path d="M6.968,1.09 L6.968,0.606" transform="matrix(1,0,0,-1,-0,6.06)" stroke="rgb(100,100,100)" stroke-width="0.0010" stroke-linecap="round" stroke-linejoin="round" fill="none" shaper:cutDepth="0" /><path d="M7.574,1.09 L7.574,0.606" transform="matrix(1,0,0,-1,-0,6.06)" stroke="rgb(100,100,100)" stroke-width="0.0010" stroke-linecap="round" stroke-linejoin="round" fill="none" shaper:cutDepth="0" /><path d="M7.877,1.09 L7.877,0.606" transform="matrix(1,0,0,-1,-0,6.06)" stroke="rgb(100,100,100)" stroke-width="0.0010" stroke-linecap="round" stroke-linejoin="round" fill="none" shaper:cutDepth="0" /><path d="M8.483,1.09 L8.483,0.606" transform="matrix(1,0,0,-1,-0,6.06)" stroke="rgb(100,100,100)" stroke-width="0.0010" stroke-linecap="round" stroke-linejoin="round" fill="none" shaper:cutDepth="0" /><path d="M6.665,0.484 L8.058,0.484 8.058,0.181 6.665,0.181 6.665,0.484z" transform="matrix(1,0,0,-1,-0,6.06)" stroke="rgb(100,100,100)" stroke-width="0.0010" stroke-linecap="round" stroke-linejoin="round" fill="none" shaper:cutDepth="0" /><path d="M7.028,0.484 L7.028,0.181" transform="matrix(1,0,0,-1,-0,6.06)" stroke="rgb(100,100,100)" stroke-width="0.0010" stroke-linecap="round" stroke-linejoin="round" fill="none" shaper:cutDepth="0" /><path d="M9.271,4.12 L9.271,4.848 5.876,4.848 5.876,4.12" transform="matrix(1,0,0,-1,-0,6.06)" stroke="rgb(100,100,100)" stroke-width="0.0010" stroke-linecap="round" stroke-linejoin="round" fill="none" shaper:cutDepth="0" /><path d="M6.482,4.848 L6.482,4.12" transform="matrix(1,0,0,-1,-0,6.06)" stroke="rgb(100,100,100)" stroke-width="0.0010" stroke-linecap="round" stroke-linejoin="round" fill="none" shaper:cutDepth="0" /><path d="M7.695,4.848 L7.695,4.12" transform="matrix(1,0,0,-1,-0,6.06)" stroke="rgb(100,100,100)" stroke-width="0.0010" stroke-linecap="round" stroke-linejoin="round" fill="none" shaper:cutDepth="0" /><path d="M8.907,4.848 L8.907,4.12" transform="matrix(1,0,0,-1,-0,6.06)" stroke="rgb(100,100,100)" stroke-width="0.0010" stroke-linecap="round" stroke-linejoin="round" fill="none" shaper:cutDepth="0" /><path d="M9.695,4.12 L10.846,4.12 10.846,4.848 9.695,4.848 9.695,1.09 11.025,1.09" transform="matrix(1,0,0,-1,-0,6.06)" stroke="rgb(100,100,100)" stroke-width="0.0010" stroke-linecap="round" stroke-linejoin="round" fill="none" shaper:cutDepth="0" /><path d="M14.5289365,5.212 L9.695,5.212 9.695,5.9760534" transform="matrix(1,0,0,-1,-0,6.06)" stroke="rgb(100,100,100)" stroke-width="0.0010" stroke-linecap="round" stroke-linejoin="round" fill="none" shaper:cutDepth="0" /><path d="M10.725,6.06 L10.725,5.212" transform="matrix(1,0,0,-1,-0,6.06)" stroke="rgb(100,100,100)" stroke-width="0.0010" stroke-linecap="round" stroke-linejoin="round" fill="none" shaper:cutDepth="0" /><path d="M11.21,6.06 L11.21,5.212" transform="matrix(1,0,0,-1,-0,6.06)" stroke="rgb(100,100,100)" stroke-width="0.0010" stroke-linecap="round" stroke-linejoin="round" fill="none" shaper:cutDepth="0" /><path d="M12.24,6.06 L12.24,5.212" transform="matrix(1,0,0,-1,-0,6.06)" stroke="rgb(100,100,100)" stroke-width="0.0010" stroke-linecap="round" stroke-linejoin="round" fill="none" shaper:cutDepth="0" /><path d="M13.816,6.06 L13.816,5.212" transform="matrix(1,0,0,-1,-0,6.06)" stroke="rgb(100,100,100)" stroke-width="0.0010" stroke-linecap="round" stroke-linejoin="round" fill="none" shaper:cutDepth="0" /><path d="M14.6,4.485 L14.055,4.485 14.055,4.848 14.479,4.848" transform="matrix(1,0,0,-1,-0,6.06)" stroke="rgb(100,100,100)" stroke-width="0.0010" stroke-linecap="round" stroke-linejoin="round" fill="none" shaper:cutDepth="0" /><path d="M11.025,0.303 L11.025,4.12 11.025,4.848 13.755,4.848 13.755,0.303 13.449,0.303" transform="matrix(1,0,0,-1,-0,6.06)" stroke="rgb(100,100,100)" stroke-width="0.0010" stroke-linecap="round" stroke-linejoin="round" fill="none" shaper:cutDepth="0" /><path d="M14.055,4.485 L13.994,4.485 13.994,0" transform="matrix(1,0,0,-1,-0,6.06)" stroke="rgb(100,100,100)" stroke-width="0.0010" stroke-linecap="round" stroke-linejoin="round" fill="none" shaper:cutDepth="0" /><path d="M13.994,3.273 L14.6,3.273" transform="matrix(1,0,0,-1,-0,6.06)" stroke="rgb(100,100,100)" stroke-width="0.0010" stroke-linecap="round" stroke-linejoin="round" fill="none" shaper:cutDepth="0" /><path d="M13.994,2.97 L14.6,2.97" transform="matrix(1,0,0,-1,-0,6.06)" stroke="rgb(100,100,100)" stroke-width="0.0010" stroke-linecap="round" stroke-linejoin="round" fill="none" shaper:cutDepth="0" /><path d="M13.994,1.334 L14.6,1.334" transform="matrix(1,0,0,-1,-0,6.06)" stroke="rgb(100,100,100)" stroke-width="0.0010" stroke-linecap="round" stroke-linejoin="round" fill="none" shaper:cutDepth="0" /><path d="M13.994,0.304 L14.6,0.304" transform="matrix(1,0,0,-1,-0,6.06)" stroke="rgb(100,100,100)" stroke-width="0.0010" stroke-linecap="round" stroke-linejoin="round" fill="none" shaper:cutDepth="0" /><path d="M10.604,4.848 L10.604,4.12" transform="matrix(1,0,0,-1,-0,6.06)" stroke="rgb(100,100,100)" stroke-width="0.0010" stroke-linecap="round" stroke-linejoin="round" fill="none" shaper:cutDepth="0" /><path d="M9.695,3.757 L10.846,3.757 10.846,4.12" transform="matrix(1,0,0,-1,-0,6.06)" stroke="rgb(100,100,100)" stroke-width="0.0010" stroke-linecap="round" stroke-linejoin="round" fill="none" shaper:cutDepth="0" /><path d="M11.025,1.453 L9.8597249,1.453 9.695,1.453" transform="matrix(1,0,0,-1,-0,6.06)" stroke="rgb(100,100,100)" stroke-width="0.0010" stroke-linecap="round" stroke-linejoin="round" fill="none" shaper:cutDepth="0" /><path d="M9.998,1.453 L9.998,1.09" transform="matrix(1,0,0,-1,-0,6.06)" stroke="rgb(100,100,100)" stroke-width="0.0010" stroke-linecap="round" stroke-linejoin="round" fill="none" shaper:cutDepth="0" /><path d="M8.183,1.09 L8.183,0.606" transform="matrix(1,0,0,-1,-0,6.06)" stroke="rgb(100,100,100)" stroke-width="0.0010" stroke-linecap="round" stroke-linejoin="round" fill="none" shaper:cutDepth="0" /><path d="M7.391,0.484 L7.391,0.181" transform="matrix(1,0,0,-1,-0,6.06)" stroke="rgb(100,100,100)" stroke-width="0.0010" stroke-linecap="round" stroke-linejoin="round" fill="none" shaper:cutDepth="0" /><path d="M12.847,6.06 L12.847,5.212" transform="matrix(1,0,0,-1,-0,6.06)" stroke="rgb(100,100,100)" stroke-width="0.0010" stroke-linecap="round" stroke-linejoin="round" fill="none" shaper:cutDepth="0" /></svg>